<?xml version="1.0" encoding="UTF-8"?>
<svg id="Layer_1" xmlns="http://www.w3.org/2000/svg" version="1.1" viewBox="0 0 128 128">
  <!-- Generator: Adobe Illustrator 29.8.1, SVG Export Plug-In . SVG Version: 2.1.1 Build 2)  -->
  <defs>
    <style>
      .st0 {
        fill: #fcf8f1;
      }
    </style>
  </defs>
  <path class="st0" d="M106.93,23.13c-.6-1.43-13.59-21.28-12.82-20.1-1.96-3.02-6-3.89-9.02-1.93-3.02,1.96-3.89,6-1.93,9.02l4.52,6.98h-49.86c-14.26,0-25.87,11.6-25.87,25.87v21.65c0,5.39,4.39,9.78,9.78,9.78s9.78-4.39,9.78-9.78v-21.65c0-3.48,2.83-6.3,6.3-6.3h60.08c5.39,0,9.78-4.39,9.78-9.78,0-1.33-.27-2.6-.75-3.75Z"/>
  <path class="st0" d="M21.07,104.87c.6,1.43,13.59,21.28,12.82,20.1,1.96,3.02,6,3.89,9.02,1.93,3.02-1.96,3.89-6,1.93-9.02l-4.52-6.98h49.86c14.26,0,25.87-11.6,25.87-25.87v-21.65c0-5.39-4.39-9.78-9.78-9.78s-9.78,4.39-9.78,9.78v21.65c0,3.48-2.83,6.3-6.3,6.3H30.11c-5.39,0-9.78,4.39-9.78,9.78,0,1.33.27,2.6.75,3.75Z"/>
</svg>