<?xml version="1.0" encoding="UTF-8"?>
<svg id="Layer_1" xmlns="http://www.w3.org/2000/svg" version="1.1" viewBox="0 0 128 128">
  <!-- Generator: Adobe Illustrator 29.8.1, SVG Export Plug-In . SVG Version: 2.1.1 Build 2)  -->
  <defs>
    <style>
      .st0 {
        fill: #fcf8f1;
      }
    </style>
  </defs>
  <path class="st0" d="M4.03,124.13c-5.2-5.16-5.22-13.56-.04-18.74L81.16,28.22l-.11-.11L105.2,3.96c5.2-5.2,13.62-5.2,18.82,0h0c5.2,5.2,5.2,13.62,0,18.82L28.34,118.46h0l-5.63,5.63c-5.15,5.15-13.5,5.17-18.67.03h0Z"/>
  <path class="st0" d="M28.21,46.82l35.72,35.72,18.71-18.71L22.98,4.17c-5.28-5.28-14.04-5.4-19.21-.03-5.02,5.21-4.96,13.5.18,18.64l24.16,24.16.11-.11Z"/>
  <path class="st0" d="M81.22,99.83l-4.46-4.46,18.71-18.71,28.41,28.41c5.28,5.28,5.4,14.04.03,19.21-5.21,5.02-13.5,4.96-18.64-.18l-24.16-24.16.11-.11Z"/>
  <path class="st0" d="M98.56,17.22h-19.15c-4.83,0-8.92-3.95-8.83-8.77.09-4.68,3.91-8.44,8.61-8.44h35.97c7.07,0,12.79,5.73,12.79,12.79v35.75c0,4.83-3.95,8.92-8.77,8.83-4.68-.09-8.44-3.91-8.44-8.61v-19.38"/>
</svg>