<?xml version="1.0" encoding="UTF-8"?>
<svg id="Layer_1" xmlns="http://www.w3.org/2000/svg" version="1.1" viewBox="0 0 128 128">
  <!-- Generator: Adobe Illustrator 29.8.1, SVG Export Plug-In . SVG Version: 2.1.1 Build 2)  -->
  <defs>
    <style>
      .st0 {
        fill: #8b7355;
      }
    </style>
  </defs>
  <path class="st0" d="M18.75,26.97h0c-5.3,0-9.6,4.3-9.6,9.6v54.86c0,5.3,4.3,9.6,9.6,9.6h0c5.3,0,9.6-4.3,9.6-9.6v-54.86c0-5.3-4.3-9.6-9.6-9.6Z"/>
  <path class="st0" d="M64,0h0c-5.3,0-9.6,4.3-9.6,9.6v108.8c0,5.3,4.3,9.6,9.6,9.6h0c5.3,0,9.6-4.3,9.6-9.6V9.6c0-5.3-4.3-9.6-9.6-9.6Z"/>
  <path class="st0" d="M109.25,26.97h0c-5.3,0-9.6,4.3-9.6,9.6v54.86c0,5.3,4.3,9.6,9.6,9.6h0c5.3,0,9.6-4.3,9.6-9.6v-54.86c0-5.3-4.3-9.6-9.6-9.6Z"/>
</svg>